<?xml version="1.0" encoding="UTF-8" standalone="no"?>
<!-- Created with Inkscape (http://www.inkscape.org/) -->

<svg
   version="1.1"
   id="svg9"
   xml:space="preserve"
   width="544"
   height="385"
   viewBox="0 0 544 385"
   xmlns="http://www.w3.org/2000/svg"
   xmlns:svg="http://www.w3.org/2000/svg"><defs
     id="defs13" /><g
     id="g15"
     transform="matrix(1.3333333,0,0,-1.3333333,-69.464202,1057.2997)"
     style="display:inline"><path
       id="path285"
       style="fill:#000000;fill-opacity:1;fill-rule:evenodd;stroke:#000000;stroke-width:0.709;stroke-linecap:round;stroke-linejoin:round;stroke-miterlimit:10;stroke-dasharray:none;stroke-opacity:1"
       d="m 59.2182,578.50744 h 167.2 c 1.75085,0.10585 3.50734,-0.88694 4.5,-2.3 7.8,-10.73333 15.6,-21.46667 23.4,-32.2 1.03224,-1.23128 2.62996,-2.36202 4.3,-2.3 36.36667,-2.46667 72.73333,-4.93333 109.1,-7.4 0.89704,0.10987 1.71394,-0.364 2.5,-0.7 14.33333,-8.3 28.66667,-16.6 43,-24.9 2.69955,-1.5222 6.17877,-0.48853 7.8,2.1 11.33333,19.63333 22.66667,39.26667 34,58.9 1.46419,2.68342 0.61734,6.26885 -2.1,7.8 -17.36667,10.03333 -34.73333,20.06667 -52.1,30.1 -1.78674,0.95507 -2.84293,2.90606 -2.9,4.9 v 155.5 c 0.0635,3.06358 -2.53471,5.66252 -5.6,5.6 h -45.4 c -3.08686,0.0294 -5.61402,2.63095 -5.7,5.7 0.15566,1.50449 -1.33505,2.902 -2.8,2.8 h -51 c -1.52387,-0.0124 -2.92364,1.36176 -2.8,2.9 v 2.8 c -0.11635,1.50859 -1.29015,2.94093 -2.9,2.8 h -51 c -1.51053,0.15019 -2.93124,-1.29311 -2.8,-2.8 v -2.8 c -0.0981,-1.51654 -1.31002,-2.9234 -2.9,-2.9 h -51 c -1.45073,0.11539 -2.9678,-1.31351 -2.8,-2.8 v -5.2 c -0.11588,-1.52853 -1.32936,-2.81027 -2.9,-2.8 h -109.1 c -0.799002,0.0261 -1.583013,-0.15221 -2.301676,-0.48451 -1.984699,-0.91767 -3.471012,-3.00984 -3.398324,-5.21549 v -181.4 c -0.08391,-3.02382 2.713552,-5.71063 5.7,-5.7 z" /><path
       style="fill:none;fill-opacity:1;fill-rule:evenodd;stroke-width:0.360137"
       d="m 320.62364,68.651759 c -5.04435,0.251906 -10.29789,-0.458465 -15.1996,0.967867 -2.1552,1.161922 -0.59083,4.063163 -1.23515,5.921154 0.0785,2.470274 -2.02685,4.720299 -4.5826,4.27803 -22.55253,0.567735 -45.12625,-0.0049 -67.67897,0.594366 -1.9265,-0.29528 -3.35697,1.39712 -3.11814,3.252484 -0.44281,3.034416 0.50159,6.561708 -1.245,9.267189 -1.85847,2.014109 -4.97886,0.950429 -7.38971,1.338742 -46.69583,0.521015 -93.40161,0.110374 -140.096641,0.684047 -2.368014,0.04017 -5.202365,-0.147889 -6.645115,2.165911 -1.843679,1.599561 -1.610141,3.950271 -1.528606,6.175781 -0.03836,80.62198 -0.163295,161.25415 -0.147577,241.86976 1.036992,2.46285 3.018768,5.08831 5.73405,5.54739 72.475289,0.18022 144.953499,0.0819 217.426729,0.49268 3.55839,0.21622 7.27935,-0.2542 10.74096,0.56268 3.32639,2.44964 5.11016,6.41915 7.74734,9.52614 9.05686,12.21343 17.71559,24.74113 26.98053,36.7887 2.8233,2.28877 6.84569,1.64598 10.22002,2.19714 46.68473,3.26319 93.39912,6.18315 140.07092,9.58749 3.17234,0.20016 5.65718,2.84557 8.5145,4.08565 17.68516,10.04808 35.15211,20.49384 52.93102,30.37001 3.0518,1.36744 6.89766,-0.19372 8.71963,-2.82477 15.29533,-26.18472 30.44282,-52.45852 45.48728,-78.7877 1.757,-3.461 0.71393,-8.24016 -2.91416,-10.04232 -23.57797,-13.86006 -47.51895,-27.24996 -70.90544,-41.34186 -1.83262,-2.05364 -2.67686,-4.70138 -2.27455,-7.44329 -0.11809,-69.38188 -0.23607,-138.76376 -0.35401,-208.145647 -1.4587,-2.734494 -4.42907,-4.562063 -7.57944,-4.237995 -20.46405,-0.434281 -40.94545,0.22596 -61.4015,-0.473324 -3.54735,-0.717618 -6.13356,-4.240739 -6.29465,-7.800617 -0.15382,-1.716425 -1.55529,-3.108091 -3.34535,-2.829042 -22.79499,-0.567657 -45.61062,0.138007 -68.4026,-0.543319 -2.77925,0.0048 -4.1034,-3.195764 -3.69315,-5.597973 0.18981,-1.951074 -0.1018,-4.06795 -1.90513,-5.213902 -2.04328,-0.893691 -4.70835,-0.116633 -6.98345,-0.377384 -16.55082,0.0055 -33.10163,-0.0049 -49.65244,-0.01407 z m 17.18457,30.686177 c 8.96356,0 17.92712,0 26.89067,0 0.061,17.986674 0.12192,35.973344 0.18289,53.960014 -17.83819,-0.12368 -35.68649,0.2729 -53.51336,-0.27573 -1.12491,-0.12734 -0.2224,-2.06191 -0.53048,-2.89022 -0.0994,-16.92791 0.0422,-33.86333 0.0796,-50.794064 8.96356,0 17.92712,0 26.89068,0 z m -71.75794,9.631544 c 8.99404,0.0305 17.98808,0.061 26.98212,0.0914 0.006,17.6775 0.28111,35.36108 0.006,53.03365 -1.21178,1.30055 -4.30859,0.20564 -6.25949,0.56693 -15.90252,0 -31.80504,0 -47.70756,0 0,-17.92782 0,-35.85564 0,-53.78346 8.9931,0.0305 17.9862,0.061 26.9793,0.0914 z m 143.78739,-0.0879 c 9.02405,0 18.0481,0 27.07213,0 -0.0615,17.86686 -0.12273,35.73372 -0.18356,53.60058 -17.98691,0.061 -35.97382,0.12191 -53.96072,0.18288 0,-17.92782 0,-35.85564 0,-53.78346 9.02405,0 18.0481,0 27.07215,0 z m 71.66509,9.18348 c 8.96355,0 17.9271,0 26.89068,0 0.0609,17.98667 0.12191,35.97335 0.18288,53.96002 -18.04904,0 -36.09808,0 -54.14713,0 0.061,-17.98667 0.12195,-35.97335 0.18288,-53.96002 8.96359,0 17.92714,0 26.89069,0 z m -359.05417,9.54362 c 9.02382,0 18.04763,0 27.07145,0 -0.061,17.98691 -0.12193,35.97382 -0.18288,53.96072 -17.91605,1.2e-4 -35.83746,0.27742 -53.748996,-0.0288 -0.366666,-17.9738 -0.150339,-35.95348 -0.211721,-53.93188 9.024047,0 18.048097,0 27.072147,0 z m 71.66509,0 c 9.02335,0 18.0467,0 27.07004,0 0,18.0467 0,36.09339 0,54.14009 -17.97766,-0.0609 -35.95669,0.15375 -53.92976,-0.21032 -0.36415,-17.97312 -0.14935,-35.95207 -0.21032,-53.92977 9.02335,0 18.0467,0 27.07004,0 z m 143.69454,43.39648 c 8.96356,0 17.92712,0 26.89067,0 0.061,17.98667 0.12192,35.97334 0.18289,53.96001 -17.83819,-0.12368 -35.68649,0.2729 -53.51336,-0.27573 -1.12491,-0.12734 -0.2224,-2.06191 -0.53048,-2.89022 -0.0994,-16.92791 0.0422,-33.86333 0.0796,-50.79406 8.96356,0 17.92712,0 26.89068,0 z m -71.75794,9.63154 c 8.99404,0.0305 17.98808,0.061 26.98212,0.0914 0.006,17.79758 0.28107,35.60107 0.006,53.39379 -1.21178,1.30055 -4.30859,0.20564 -6.25949,0.56693 -15.83374,-0.0506 -31.66781,0.13217 -47.49725,-0.21032 -0.36414,-17.9743 -0.14934,-35.95441 -0.21031,-53.93328 8.9931,0.0305 17.9862,0.061 26.9793,0.0914 z m 143.69454,0 c 8.99357,0.0305 17.98714,0.061 26.9807,0.0914 0,17.92712 0,35.85424 0,53.78135 -17.98666,0.061 -35.97333,0.12192 -53.96,0.18288 0,-18.04903 0,-36.09807 0,-54.14711 8.9931,0.0305 17.9862,0.061 26.9793,0.0914 z m 71.66718,9.36355 c 8.99359,0.0305 17.98717,0.061 26.98072,0.0915 0,17.92711 0,35.85423 0,53.78135 -17.98666,0.0609 -35.97333,0.12191 -53.96,0.18288 0,-18.04904 0,-36.09808 0,-54.14711 8.99308,0.0305 17.9862,0.061 26.97928,0.0914 z M 221.18371,226.3438 c 0,9.02404 0,18.04809 0,27.07215 -17.83701,-0.12368 -35.68414,0.27291 -53.50984,-0.27573 -1.12491,-0.12735 -0.2224,-2.06192 -0.53048,-2.89022 -0.0994,-16.92814 0.0422,-33.8638 0.0796,-50.79477 17.9869,-0.061 35.97381,-0.12192 53.96071,-0.18288 0,9.02382 0,18.04763 0,27.07145 z m -98.73724,-26.88787 c 8.96333,0 17.92665,0 26.88998,0 0,17.92689 0,35.85377 0,53.78065 -17.77663,-0.064 -35.56681,0.3955 -53.332591,-0.0935 -1.173998,-0.3348 -0.16943,-2.5884 -0.533102,-3.61187 -0.08692,-16.68569 0.04641,-33.38458 0.08504,-50.07523 8.963563,0 17.927123,0 26.890673,0 z m 242.34386,70.37367 c -0.0305,8.99451 -0.061,17.98901 -0.0915,26.98352 -17.77685,-0.064 -35.56727,0.3955 -53.33329,-0.0936 -1.17399,-0.3348 -0.16942,-2.5884 -0.5331,-3.61187 -0.0869,-16.68593 0.0464,-33.38505 0.085,-50.07593 17.98808,-0.061 35.97616,-0.12192 53.96424,-0.18288 -0.0305,8.99357 -0.061,17.98714 -0.0914,26.98071 z m 44.95448,-17.52572 c 8.99357,0.0305 17.98714,0.061 26.9807,0.0914 0,17.92712 0,35.85424 0,53.78135 -17.98666,0.061 -35.97333,0.12192 -53.96,0.18288 0,-18.04903 0,-36.09807 0,-54.14711 8.9931,0.0305 17.9862,0.061 26.9793,0.0914 z m -143.82255,-0.0879 c 8.97825,0.14021 17.98813,-0.28271 26.94342,0.3517 0.50535,2.59501 0.11954,5.72988 0.28839,8.50471 0.038,14.95909 0.17004,29.92506 -0.14419,44.88133 -7.69952,0.71488 -15.49234,0.23888 -23.22882,0.40068 -10.23669,0.004 -20.47339,7.5e-4 -30.71009,0.002 0,-18.04669 0,-36.09339 0,-54.14008 8.95043,0 17.90086,0 26.85129,0 z m 215.58049,9.72369 c 9.02333,0 18.0467,0 27.07003,0 0,17.92665 0,35.85329 0,53.77994 -18.0467,0 -36.09337,0 -54.14007,0 0,-17.92665 0,-35.85329 0,-53.77994 9.02334,0 18.0467,0 27.07004,0 z m -359.05628,9.18348 c 8.96356,0 17.92712,0 26.89068,0 0.0609,17.98667 0.12191,35.97335 0.18288,53.96002 -18.04904,0 -36.09807,0 -54.147114,0 0.06096,-17.98667 0.121924,-35.97335 0.182882,-53.96002 8.963562,0 17.927122,0 26.890672,0 z m 71.6672,0 c 8.96356,0 17.92712,0 26.89068,0 0.061,17.98667 0.12191,35.97335 0.18288,53.96002 -18.04904,0 -36.09807,0 -54.14711,0 0.061,-17.98667 0.12192,-35.97335 0.18288,-53.96002 8.96355,0 17.92712,0 26.89067,0 z m 177.72746,52.9401 c 8.90353,0 17.80707,0 26.7106,0 0.061,17.98667 0.12192,35.97334 0.18288,53.96001 -17.92899,0 -35.85798,0 -53.78697,0 0.061,-17.98667 0.12192,-35.97334 0.18288,-53.96001 8.90354,0 17.80707,0 26.71061,0 z m 60.67388,3.61121 c 17.17524,4.47461 34.52112,8.99057 51.5509,13.80759 -4.09663,17.29688 -9.02852,34.3914 -13.61767,51.56214 -0.70032,1.13834 -2.36682,-0.32212 -3.38881,-0.24815 -16.24544,-4.26295 -32.48721,-8.56881 -48.64461,-13.16201 4.37192,-17.40033 8.96059,-34.75765 13.75622,-52.03976 z m 95.87724,11.54548 c 14.95065,8.09421 29.69414,16.59537 44.24456,25.38125 0.81179,0.66337 2.81415,1.21426 1.45412,2.47729 -8.41776,15.29574 -17.181,30.40176 -26.06348,45.43138 -15.55409,-8.80955 -31.04836,-17.72404 -46.48227,-26.74085 8.37087,-15.50374 17.20665,-30.76068 26.25641,-45.87783 0.19347,-0.1308 0.31801,-0.7933 0.59066,-0.67124 z"
       id="path9506"
       transform="matrix(0.75000002,0,0,-0.75000002,0,841.89002)" /><path
       style="fill:none;fill-opacity:1;fill-rule:evenodd;stroke-width:0.360137"
       d="m 551.90947,443.91604 c -0.7923,-0.36129 -14.39214,-8.1598 -30.22188,-17.33009 -28.25903,-16.37063 -28.82761,-16.6792 -31.33189,-17.00359 -1.40281,-0.18171 -34.96286,-2.50799 -74.5779,-5.1695 -76.33718,-5.12866 -73.62827,-4.88428 -75.43278,-6.80508 -0.40917,-0.43555 -7.92455,-10.66534 -16.70085,-22.73287 -11.85693,-16.30345 -16.35176,-22.21856 -17.49371,-23.02137 l -1.53683,-1.08041 -113.92126,-0.18007 -113.921256,-0.18007 -1.558525,-1.09538 c -0.857189,-0.60247 -1.921873,-1.7369 -2.365964,-2.52096 l -0.807439,-1.42557 -0.0059,-122.60287 -0.0059,-122.60287 0.763903,-1.578016 c 0.460142,-0.950526 1.344697,-1.962382 2.22449,-2.544627 l 1.460586,-0.966612 74.590565,-0.180069 c 70.4817,-0.170149 74.64396,-0.215061 75.56002,-0.815323 1.93783,-1.2698 2.22952,-2.174124 2.3646,-7.330884 0.11382,-4.344947 0.19323,-4.822612 0.91438,-5.500098 0.78481,-0.737294 1.00973,-0.742534 36.08511,-0.840575 32.98274,-0.09219 35.35873,-0.140172 36.26225,-0.732286 1.55723,-1.020527 2.17683,-2.634489 2.35246,-6.127777 0.25741,-5.119732 -4.08376,-4.582898 37.06021,-4.582898 h 35.09247 l 1.0527,1.052707 c 0.9908,0.9908 1.05271,1.224818 1.05271,3.979388 0,3.26541 0.4708,4.556552 2.05238,5.628491 0.9714,0.658382 2.30336,0.686927 35.94204,0.770273 19.21329,0.0476 35.29495,0.171499 35.73701,0.27532 0.98433,0.231169 1.89728,1.899986 1.89728,3.468042 0,2.714178 2.83276,6.234033 5.71119,7.096431 1.01162,0.303083 10.04464,0.420133 32.86521,0.425868 29.95782,0.0075 31.54142,0.04026 32.95254,0.681074 1.94578,0.883614 3.2906,2.705584 3.73789,5.06404 0.23719,1.250655 0.36187,37.839301 0.36187,106.184941 0,103.69376 0.004,104.28513 0.72344,105.77124 0.39792,0.82196 1.08668,1.83157 1.53058,2.24358 0.44394,0.41201 16.44608,9.77448 35.56033,20.80549 19.11426,11.031 35.32379,20.44081 36.02123,20.91069 2.285,1.53949 3.45681,4.57864 2.8341,7.35023 -0.46105,2.05201 -45.81609,80.58706 -47.33547,81.96429 -2.13763,1.93765 -5.02614,2.42678 -7.54594,1.27777 z"
       id="path9545"
       transform="matrix(0.75000002,0,0,-0.75000002,0,841.89002)" /><path
       style="fill:none;fill-opacity:1;fill-rule:evenodd;stroke-width:0.360137"
       d="m 551.90947,443.9093 c -0.7923,-0.365 -14.23059,-8.0739 -29.86286,-17.13091 -15.63227,-9.057 -28.83557,-16.62438 -29.34062,-16.8164 -1.23725,-0.47041 2.39501,-0.20428 -63.42306,-4.64693 -32.18722,-2.1726 -64.67328,-4.36732 -72.19126,-4.87717 -14.56442,-0.98771 -15.19984,-1.10301 -16.98472,-3.08204 -0.41933,-0.46495 -7.69073,-10.40699 -16.15866,-22.09343 -8.46793,-11.68643 -15.82276,-21.7082 -16.34407,-22.27059 -0.52131,-0.56239 -1.43402,-1.29166 -2.02824,-1.62061 -0.9985,-0.55274 -9.71339,-0.61174 -114.94264,-0.77816 l -113.862233,-0.18007 -1.561578,-1.08523 c -0.914213,-0.63533 -1.898141,-1.75068 -2.373438,-2.69045 l -0.811862,-1.60522 0.09159,-122.84798 0.09159,-122.847988 0.982196,-1.4173 c 0.540208,-0.779514 1.512577,-1.738022 2.16082,-2.130018 1.161794,-0.702542 2.243358,-0.715291 75.742805,-0.892788 70.4565,-0.170148 74.6176,-0.215064 75.53366,-0.815323 1.93784,-1.269795 2.22953,-2.174119 2.36461,-7.330884 0.11391,-4.348372 0.19281,-4.822222 0.91616,-5.501771 0.78719,-0.739526 0.98453,-0.744123 36.08508,-0.840575 33.0171,-0.09073 35.3561,-0.137957 36.26295,-0.732237 1.75693,-1.151366 2.1993,-2.259208 2.35885,-5.907412 0.23517,-5.376939 -4.20407,-4.801639 37.05137,-4.801639 h 35.09247 l 1.0527,1.052707 c 0.997,0.996998 1.05271,1.213352 1.05271,4.088314 0,2.564495 0.12769,3.225519 0.82278,4.259309 0.47011,0.69919 1.35771,1.407945 2.07079,1.653546 0.93164,0.320882 10.06329,0.434997 36.02332,0.450171 34.24016,0.02001 34.78717,0.03139 35.54692,0.739177 0.42438,0.395368 0.86663,1.327222 0.98285,2.070786 0.49147,3.14557 0.99106,4.249879 2.65114,5.860443 0.97169,0.942697 2.30009,1.813957 3.15728,2.070786 1.12277,0.336388 9.06774,0.443372 32.92637,0.443372 31.22086,0 31.45772,0.0054 33.01056,0.75714 0.86022,0.416427 2.00527,1.33565 2.54461,2.042718 l 0.98058,1.285578 0.18007,105.908248 0.18007,105.90826 0.81348,1.65086 c 0.44743,0.90798 1.17725,1.99257 1.6218,2.41021 0.44455,0.41764 16.28463,9.69623 35.20016,20.61908 18.91556,10.92285 35.12985,20.32821 36.03182,20.9008 0.90196,0.57259 1.99587,1.67439 2.43092,2.44846 1.06539,1.89558 1.07411,4.92273 0.0202,6.99581 -0.42399,0.83393 -6.47922,11.40199 -13.45611,23.48458 -6.9769,12.08258 -16.94069,29.34213 -22.14178,38.35455 -5.20106,9.01242 -9.78524,16.85065 -10.18705,17.41826 -0.89468,1.26398 -3.95628,2.74392 -5.66405,2.73798 -0.69326,-0.004 -1.90872,-0.30302 -2.70102,-0.66802 z"
       id="path9584"
       transform="matrix(0.75000002,0,0,-0.75000002,0,841.89002)" /><path
       style="fill:none;fill-opacity:1;fill-rule:evenodd;stroke-width:0.360137"
       d="m 552.44967,444.08678 c -0.69326,-0.25869 -14.2993,-8.03328 -30.2356,-17.27684 -15.93633,-9.24358 -29.5495,-16.94358 -30.25148,-17.11113 -0.70201,-0.16754 -33.28351,-2.44661 -72.40335,-5.06459 -39.11985,-2.61798 -72.38803,-4.89166 -73.9293,-5.05262 -1.98927,-0.20774 -3.17064,-0.53898 -4.07186,-1.14167 -0.84056,-0.56214 -6.66696,-8.27234 -17.24247,-22.81737 -8.7851,-12.08258 -16.43336,-22.40541 -16.99613,-22.93961 -2.38557,-2.26444 7.35298,-2.08911 -116.5255,-2.0978 -108.668118,-0.008 -112.877455,-0.0322 -114.264935,-0.66873 -1.766158,-0.81019 -3.359957,-2.36093 -4.011922,-3.90353 -0.409715,-0.96943 -0.489786,-21.12148 -0.489786,-123.26835 0,-109.58065 0.05739,-122.24685 0.559309,-123.448417 0.591217,-1.415328 2.020866,-3.10176 3.222126,-3.800859 0.538787,-0.313559 19.549516,-0.464551 75.448638,-0.599248 68.84022,-0.16588 74.79481,-0.227126 75.57167,-0.7773 1.7992,-1.274182 2.0183,-1.993657 2.21348,-7.268497 0.17368,-4.693818 0.23404,-5.024747 1.03464,-5.672153 0.82358,-0.665982 1.94038,-0.687535 35.65353,-0.688077 32.42265,-5.04e-4 34.8878,-0.04363 36.03821,-0.630239 2.03085,-1.035557 2.6323,-2.191305 2.79852,-5.377709 0.20454,-3.920692 0.33695,-4.349028 1.53606,-4.969111 0.92394,-0.47779 5.42345,-0.546755 35.67198,-0.546755 22.90478,0 34.84755,0.124624 35.30303,0.36839 1.1698,0.62606 1.58261,1.84564 1.78967,5.287401 0.22659,3.766313 0.86084,4.854384 3.21008,5.506985 0.81069,0.225204 14.09639,0.358325 35.8876,0.359589 l 34.60039,0.002 0.75232,0.810307 c 0.43206,0.465384 0.86221,1.576805 1.01044,2.610991 0.48049,3.351982 2.19284,5.758845 5.02531,7.063565 1.36297,0.627821 3.14727,0.665457 33.13258,0.698863 23.32266,0.02598 31.98075,0.146955 32.78529,0.45808 1.49496,0.578115 2.39549,1.28779 3.43088,2.703767 l 0.8779,1.200585 0.18007,105.940082 0.18007,105.94007 0.77527,1.44055 c 0.4264,0.7923 1.20854,1.8457 1.73816,2.34089 0.52958,0.49519 16.94061,10.13785 36.46895,21.42813 28.23108,16.32178 35.7314,20.80866 36.60577,21.89861 0.93279,1.16274 1.11884,1.7367 1.2258,3.78143 l 0.12608,2.41062 -23.07442,39.97518 c -16.34916,28.32399 -23.48095,40.36019 -24.46916,41.29615 -2.05455,1.94603 -4.46019,2.50425 -6.88791,1.59836 z"
       id="path9623"
       transform="matrix(0.75000002,0,0,-0.75000002,0,841.89002)" /></g><g
     id="layer2"
     style="display:inline"
     transform="translate(-69.186712,-65.441008)"><path
       style="display:inline;fill:#b4b4b4;fill-opacity:1;stroke:#000000;stroke-width:0.53175;stroke-linecap:round;stroke-linejoin:round;stroke-miterlimit:10;stroke-dasharray:none;stroke-opacity:1"
       d="m 111.91819,705.80744 v 40.30001 h -40.2 v -40.30001 z"
       id="r0c0"
       transform="matrix(1.3333333,0,0,-1.3333333,0,1122.52)" /><path
       style="display:inline;fill:#b4b4b4;fill-opacity:1;stroke:#000000;stroke-width:0.53175;stroke-linecap:round;stroke-linejoin:round;stroke-miterlimit:10;stroke-dasharray:none;stroke-opacity:1"
       d="m 111.91819,705.80744 v 40.30001 h -40.2 v -40.30001 z"
       id="r0c1"
       transform="matrix(1.3333333,0,0,-1.3333333,71.86668,1122.52)" /><path
       id="r3c5"
       style="display:inline;fill:#b4b4b4;fill-opacity:1;stroke:#000000;stroke-width:0.709;stroke-linecap:round;stroke-linejoin:round;stroke-miterlimit:10;stroke-dasharray:none;stroke-opacity:1"
       d="m 547.74996,412.73057 26.8,-46.53333 -46.53333,-26.8 -26.8,46.53334 z" /><path
       id="r3c4"
       style="display:inline;fill:#b4b4b4;fill-opacity:1;stroke:#000000;stroke-width:0.53175;stroke-linecap:round;stroke-linejoin:round;stroke-miterlimit:10;stroke-dasharray:none;stroke-opacity:1"
       d="m 352.6182,546.80745 10.5,38.89999 -38.9,10.40001 -10.4,-38.90001 z"
       transform="matrix(1.3333333,0,0,-1.3333333,0,1122.52)" /><path
       style="display:inline;fill:#b4b4b4;fill-opacity:1;stroke:#000000;stroke-width:0.53175;stroke-linecap:round;stroke-linejoin:round;stroke-miterlimit:10;stroke-dasharray:none;stroke-opacity:1"
       d="m 111.91819,705.80744 v 40.30001 h -40.2 v -40.30001 z"
       id="r1c0"
       transform="matrix(1.3333333,0,0,-1.3333333,0,1194.3867)" /><path
       style="display:inline;fill:#b4b4b4;fill-opacity:1;stroke:#000000;stroke-width:0.53175;stroke-linecap:round;stroke-linejoin:round;stroke-miterlimit:10;stroke-dasharray:none;stroke-opacity:1"
       d="m 111.91819,705.80744 v 40.30001 h -40.2 v -40.30001 z"
       id="r2c0"
       transform="matrix(1.3333333,0,0,-1.3333333,0,1266.12)" /><path
       style="display:inline;fill:#b4b4b4;fill-opacity:1;stroke:#000000;stroke-width:0.53175;stroke-linecap:round;stroke-linejoin:round;stroke-miterlimit:10;stroke-dasharray:none;stroke-opacity:1"
       d="m 111.91819,705.80744 v 40.30001 h -40.2 v -40.30001 z"
       id="r1c1"
       transform="matrix(1.3333333,0,0,-1.3333333,71.733345,1194.3867)" /><path
       style="display:inline;fill:#b4b4b4;fill-opacity:1;stroke:#000000;stroke-width:0.53175;stroke-linecap:round;stroke-linejoin:round;stroke-miterlimit:10;stroke-dasharray:none;stroke-opacity:1"
       d="m 111.91819,705.80744 v 40.30001 h -40.2 v -40.30001 z"
       id="r2c1"
       transform="matrix(1.3333333,0,0,-1.3333333,71.733345,1266.12)" /><path
       style="display:inline;fill:#b4b4b4;fill-opacity:1;stroke:#000000;stroke-width:0.53175;stroke-linecap:round;stroke-linejoin:round;stroke-miterlimit:10;stroke-dasharray:none;stroke-opacity:1"
       d="m 111.91819,705.80744 v 40.30001 h -40.2 v -40.30001 z"
       id="r2c2"
       transform="matrix(1.3333333,0,0,-1.3333333,143.60001,1247.32)" /><path
       style="display:inline;fill:#b4b4b4;fill-opacity:1;stroke:#000000;stroke-width:0.53175;stroke-linecap:round;stroke-linejoin:round;stroke-miterlimit:10;stroke-dasharray:none;stroke-opacity:1"
       d="m 111.91819,705.80744 v 40.30001 h -40.2 v -40.30001 z"
       id="r1c2"
       transform="matrix(1.3333333,0,0,-1.3333333,143.60001,1175.4533)" /><path
       style="display:inline;fill:#b4b4b4;fill-opacity:1;stroke:#000000;stroke-width:0.53175;stroke-linecap:round;stroke-linejoin:round;stroke-miterlimit:10;stroke-dasharray:none;stroke-opacity:1"
       d="m 111.91819,705.80744 v 40.30001 h -40.2 v -40.30001 z"
       id="r0c2"
       transform="matrix(1.3333333,0,0,-1.3333333,143.60001,1103.72)" /><path
       style="display:inline;fill:#b4b4b4;fill-opacity:1;stroke:#000000;stroke-width:0.53175;stroke-linecap:round;stroke-linejoin:round;stroke-miterlimit:10;stroke-dasharray:none;stroke-opacity:1"
       d="m 111.91819,705.80744 v 40.30001 h -40.2 v -40.30001 z"
       id="r0c3"
       transform="matrix(1.3333333,0,0,-1.3333333,215.46667,1094.2533)" /><path
       style="display:inline;fill:#b4b4b4;fill-opacity:1;stroke:#000000;stroke-width:0.53175;stroke-linecap:round;stroke-linejoin:round;stroke-miterlimit:10;stroke-dasharray:none;stroke-opacity:1"
       d="m 111.91819,705.80744 v 40.30001 h -40.2 v -40.30001 z"
       id="r0c4"
       transform="matrix(1.3333333,0,0,-1.3333333,287.33334,1103.5867)" /><path
       style="display:inline;fill:#b4b4b4;fill-opacity:1;stroke:#000000;stroke-width:0.53175;stroke-linecap:round;stroke-linejoin:round;stroke-miterlimit:10;stroke-dasharray:none;stroke-opacity:1"
       d="m 111.91819,705.80744 v 40.30001 h -40.2 v -40.30001 z"
       id="r0c5"
       transform="matrix(1.3333333,0,0,-1.3333333,359.06667,1113.0533)" /><path
       style="display:inline;fill:#b4b4b4;fill-opacity:1;stroke:#000000;stroke-width:0.53175;stroke-linecap:round;stroke-linejoin:round;stroke-miterlimit:10;stroke-dasharray:none;stroke-opacity:1"
       d="m 111.91819,705.80744 v 40.30001 h -40.2 v -40.30001 z"
       id="r1c4"
       transform="matrix(1.3333333,0,0,-1.3333333,287.20001,1175.4533)" /><path
       style="display:inline;fill:#b4b4b4;fill-opacity:1;stroke:#000000;stroke-width:0.53175;stroke-linecap:round;stroke-linejoin:round;stroke-miterlimit:10;stroke-dasharray:none;stroke-opacity:1"
       d="m 111.91819,705.80744 v 40.30001 h -40.2 v -40.30001 z"
       id="r1c3"
       transform="matrix(1.3333333,0,0,-1.3333333,215.46667,1165.9867)" /><path
       style="display:inline;fill:#b4b4b4;fill-opacity:1;stroke:#000000;stroke-width:0.53175;stroke-linecap:round;stroke-linejoin:round;stroke-miterlimit:10;stroke-dasharray:none;stroke-opacity:1"
       d="m 111.91819,705.80744 v 40.30001 h -40.2 v -40.30001 z"
       id="r1c5"
       transform="matrix(1.3333333,0,0,-1.3333333,359.06667,1184.92)" /><path
       style="display:inline;fill:#b4b4b4;fill-opacity:1;stroke:#000000;stroke-width:0.53175;stroke-linecap:round;stroke-linejoin:round;stroke-miterlimit:10;stroke-dasharray:none;stroke-opacity:1"
       d="m 111.91819,705.80744 v 40.30001 h -40.2 v -40.30001 z"
       id="r2c5"
       transform="matrix(1.3333333,0,0,-1.3333333,359.06667,1256.7867)" /><path
       style="display:inline;fill:#b4b4b4;fill-opacity:1;stroke:#000000;stroke-width:0.53175;stroke-linecap:round;stroke-linejoin:round;stroke-miterlimit:10;stroke-dasharray:none;stroke-opacity:1"
       d="m 111.91819,705.80744 v 40.30001 h -40.2 v -40.30001 z"
       id="r2c4"
       transform="matrix(1.3333333,0,0,-1.3333333,287.20001,1247.32)" /><path
       style="display:inline;fill:#b4b4b4;fill-opacity:1;stroke:#000000;stroke-width:0.53175;stroke-linecap:round;stroke-linejoin:round;stroke-miterlimit:10;stroke-dasharray:none;stroke-opacity:1"
       d="m 111.91819,705.80744 v 40.30001 h -40.2 v -40.30001 z"
       id="r2c3"
       transform="matrix(1.3333333,0,0,-1.3333333,215.46667,1237.8533)" /><path
       style="display:inline;fill:#b4b4b4;fill-opacity:1;stroke:#000000;stroke-width:0.53175;stroke-linecap:round;stroke-linejoin:round;stroke-miterlimit:10;stroke-dasharray:none;stroke-opacity:1"
       d="m 111.91819,705.80744 v 40.30001 h -40.2 v -40.30001 z"
       id="r3c3"
       transform="matrix(1.3333333,0,0,-1.3333333,249.46667,1319.0533)" /></g></svg>
